PathFileType	4	(X/Y/Z)	C:/Users/beibeiliu/ov580/test_trc\sequence.32_training_dense_right.trc
DataRate	CameraRate	NumFrames	NumMarkers	Units	OrigDataRate	OrigDataStartFrame	OrigNumFrames
120	120	10	19	mm	120	58	200
Frame#	Time	ThumbCMC			ThumbMCP			ThumbIP			ThumbTip			IndexMCP			IndexPIP			IndexTip			MiddleMCP			MiddlePIP			MiddleTip			RingMCP			RingPIP			RingTip			PinkyMCP			PinkyPIP			PinkyTip			BackHand1			BackHand2			BackHand3	
		X0	Y0	Z0	X1	Y1	Z1	X2	Y2	Z2	X3	Y3	Z3	X4	Y4	Z4	X5	Y5	Z5	X6	Y6	Z6	X7	Y7	Z7	X8	Y8	Z8	X9	Y9	Z9	X10	Y10	Z10	X11	Y11	Z11	X12	Y12	Z12	X13	Y13	Z13	X14	Y14	Z14	X15	Y15	Z15	X16	Y16	Z16	X17	Y17	Z17	X18	Y18	Z18	
57	0.475	32.4496	36.9494	18.4685	24.6861	21.1226	-11.5089	27.3495	15.0636	-35.6915	40.8589	13.501	-49.6112	27.2968	69.0508	-39.102	28.8135	55.5831	-64.7137	37.4487	27.2558	-57.4117	50.6855	72.5421	-47.3632	49.7866	51.4247	-69.9433	54.7914	27.1188	-52.1189	70.4445	70.6156	-42.2996	67.4707	51.8967	-62.6794	62.8855	28.4358	-45.3885	89.2475	70.4006	-34.0951	84.0413	60.1348	-54.2109	74.7157	32.8899	-52.5273	69.618	71.9121	6.51997	74.3096	67.4257	27.9073	47.6178	68.1847	17.5311	
58	0.483333	34.7372	33.8467	12.8208	26.1844	16.7504	-11.6878	25.4125	11.6087	-34.741	41.1551	11.11	-55.5365	34.5135	66.2836	-41.857	32.1273	49.8991	-66.3574	39.6613	25.04	-54.4618	55.1186	69.3463	-47.3421	58.5526	46.5537	-70.0064	55.0014	24.3417	-45.9155	70.8907	67.916	-43.8412	74.0301	47.1728	-62.7751	68.6228	27.1055	-47.1871	94.1724	66.6665	-32.2018	92.3056	58.0983	-55.4862	82.1676	33.8631	-58.2412	76.7881	65.1703	5.74632	78.0489	59.1671	31.6204	50.3904	62.3993	17.9119	
59	0.491667	39.0757	30.9644	13.0237	26.2487	15.0931	-12.3924	31.1921	13.8539	-36.4686	37.1116	8.5271	-55.5014	37.3299	63.837	-42.5828	41.6388	48.8598	-65.3494	49.6269	23.7011	-50.1326	61.5327	66.0923	-50.9204	63.8589	43.1067	-68.6625	62.4672	23.2076	-45.1087	81.1173	65.4192	-44.3894	80.7293	43.724	-62.2982	76.6662	23.9865	-43.753	100.464	62.678	-28.9376	101.139	54.7974	-53.2158	87.5575	34.2986	-55.3247	78.9657	63.7292	2.54123	80.7149	55.7951	32.0799	55.0717	59.915	18.8199	
60	0.5	36.8851	27.8073	17.3949	30.3751	18.3672	-9.17018	24.7415	14.3865	-31.7397	26.3812	9.59096	-55.0235	44.1915	63.883	-43.4102	44.6039	42.4176	-62.4822	48.0899	20.2454	-42.4254	63.1444	64.2617	-44.819	63.2821	42.1034	-65.6142	64.9808	22.422	-35.0754	85.1547	61.7943	-44.7235	83.1075	40.2616	-57.6735	77.9701	21.2123	-37.121	104.389	58.2576	-26.7068	97.8596	49.7132	-51.1211	91.5311	27.9295	-51.9015	83.3658	61.851	7.55855	82.8427	53.3967	33.6417	56.37	59.2977	18.1402	
61	0.508333	35.8952	31.8085	19.0179	21.0613	22.1062	-1.74711	14.3635	23.2253	-25.4857	15.1608	23.0545	-44.7359	44.2506	61.437	-36.493	49.544	40.1842	-58.0621	46.4314	20.2215	-38.7367	69.0098	60.5562	-40.6179	64.3342	36.816	-61.094	60.7817	19.5972	-34.7607	83.2287	58.0773	-38.435	81.8027	39.3447	-54.9306	76.1033	17.6947	-35.9113	102.411	56.4703	-25.0802	103.923	47.6564	-45.0802	85.8181	23.7446	-47.1033	84.0878	57.7987	10.0951	82.5217	50.4013	36.453	53.7454	56.8091	22.6368	
62	0.516667	32.7996	39.4749	27.3103	19.1206	38.4054	6.09181	9.08339	46.2874	-16.5529	1.97755	48.2255	-32.3226	50.8931	58.8998	-33.803	51.2045	37.6471	-51.6393	44.0357	16.5728	-28.404	71.8092	58.0541	-41.9277	65.5607	34.6724	-56.9163	60.4294	14.1816	-29.6355	90.1886	53.6332	-30.9132	80.5811	34.0268	-51.0538	71.406	13.2909	-31.3029	107.859	49.3274	-13.9508	106.177	44.2853	-39.7692	88.2008	25.7247	-44.8378	83.991	54.5464	18.1858	83.5673	48.5458	44.222	57.6976	58.1189	25.0827	
63	0.525	35.6421	50.1573	29.8493	24.0749	54.9228	10.1586	14.2041	65.6558	-7.15478	5.10489	73.2832	-24.5723	58.7933	55.8901	-32.3305	48.6797	30.6241	-46.2896	47.0163	14.1464	-20.5597	79.3748	53.8551	-35.3457	73.3083	33.9182	-53.9341	61.0729	6.10119	-32.2841	97.5963	49.3882	-24.6449	92.6423	32.7905	-46.7962	77.0281	12.205	-39.0844	112.003	43.9156	-5.68475	115.156	43.9007	-28.4105	103.944	26.3555	-45.1065	89.8564	56.2908	19.7805	84.0261	50.2056	48.5264	60.6399	62.923	27.3681	
64	0.533333	42.219	56.7635	36.8484	30.901	67.4994	11.3549	23.2028	75.2686	-3.67781	18.4974	85.155	-22.1588	62.4377	59.7293	-30.3861	53.5256	30.654	-42.5238	48.061	13.4836	-20.4085	84.5067	55.6854	-33.4944	82.8448	33.7876	-52.5136	65.1077	8.11121	-47.229	104.846	49.7087	-20.8018	103.427	32.5813	-47.1513	87.3099	16.3863	-49.3663	116.515	43.3081	-1.33826	126.378	40.6181	-23.0801	123.56	27.1766	-41.9528	97.2017	56.3672	22.2267	90.704	55.6665	50.5171	70.032	67.5709	31.2334	
65	0.541667	43.0694	61.4613	36.1432	34.3011	63.6137	12.4758	26.3292	71.2163	-6.45817	21.8785	74.0127	-25.3876	65.1628	61.6129	-28.4869	61.8628	34.2095	-43.0689	52.322	13.584	-30.6445	92.8614	57.2404	-33.0772	89.9515	41.9542	-52.9184	77.26	17.0943	-61.6882	106.342	54.6075	-20.4668	108.872	44.7417	-43.94	99.1344	25.6184	-58.8337	119.723	45.5443	-0.434687	132.679	40.8795	-19.0533	134.757	34.9566	-36.5764	97.5639	59.798	26.5918	90.0179	60.0267	52.5904	74.5608	73.5288	30.4218	
66	0.55	38.2422	58.1149	34.5379	28.101	50.1735	11.7226	21.552	49.8488	-13.6186	22.9033	43.811	-32.0873	60.5247	61.9306	-31.3127	55.147	45.5212	-50.3667	49.7246	14.193	-46.6288	85.7025	63.4667	-29.6904	88.7327	53.8501	-55.7149	86.7267	30.7269	-76.2821	105.214	58.3351	-21.435	111.077	52.2992	-45.2055	109.525	42.4598	-62.867	116.866	47.1701	-1.66073	126.197	44.6051	-15.5018	139.941	38.3184	-33.7105	96.4571	63.6194	21.8682	89.6629	63.0841	48.6203	67.9402	72.982	31.6558	
